<svg height="800" width="800" xmlns="http://www.w3.org/2000/svg" viewBox="0 0 512 512" xml:space="preserve"><path d="M0 0v512h512V0H0zm469.333 469.333H42.667V42.667h426.667v426.666z"/><path d="M128 277.333h204.497l-48.915 48.915c-8.331 8.331-8.331 21.839 0 30.17 8.331 8.331 21.839 8.331 30.17 0l85.333-85.333.01-.011c.493-.494.96-1.012 1.403-1.552.203-.247.379-.507.569-.761.227-.303.462-.6.673-.915.203-.304.379-.619.565-.93.171-.286.35-.565.508-.86.17-.317.313-.643.466-.967.145-.308.299-.61.43-.925.13-.314.235-.635.349-.953.122-.338.251-.672.356-1.018.096-.318.167-.642.248-.964.089-.353.188-.701.259-1.061.074-.372.117-.748.171-1.122.045-.314.105-.622.136-.941.138-1.4.138-2.81 0-4.21-.031-.318-.091-.627-.136-.941-.054-.375-.097-.75-.171-1.122-.071-.359-.17-.708-.259-1.061-.081-.322-.152-.645-.248-.964-.105-.346-.234-.68-.356-1.018-.114-.318-.219-.639-.349-.953-.131-.315-.284-.618-.43-.925-.153-.324-.296-.65-.466-.967-.158-.294-.337-.574-.508-.86-.186-.311-.362-.626-.565-.93-.211-.315-.446-.612-.673-.915-.19-.254-.366-.514-.569-.761-.443-.54-.91-1.059-1.403-1.552l-.01-.011-85.333-85.333c-8.331-8.331-21.839-8.331-30.17 0s-8.331 21.839 0 30.17l48.915 48.915H128c-11.782 0-21.333 9.551-21.333 21.333s9.551 21.333 21.333 21.333z"/></svg>